<?xml version="1.0" encoding="UTF-8" standalone="no"?>
<svg
   xmlns:dc="http://purl.org/dc/elements/1.1/"
   xmlns:cc="http://creativecommons.org/ns#"
   xmlns:rdf="http://www.w3.org/1999/02/22-rdf-syntax-ns#"
   xmlns:svg="http://www.w3.org/2000/svg"
   xmlns="http://www.w3.org/2000/svg"
   version="1.1"
   id="Layer_1"
   x="0px"
   y="0px"
   width="123.58617"
   height="37.666576"
   viewBox="0 0 123.58617 37.666576"
   enable-background="new 0 0 124 33"
   xml:space="preserve"><metadata
   id="metadata27"><rdf:RDF><cc:Work
       rdf:about=""><dc:format>image/svg+xml</dc:format><dc:type
         rdf:resource="http://purl.org/dc/dcmitype/StillImage" /><dc:title></dc:title></cc:Work></rdf:RDF></metadata><defs
   id="defs25" />
<path
   fill="#253b80"
   d="m 46.210989,14.237575 h -6.839 c -0.468,0 -0.866,0.34 -0.939,0.802 l -2.766,17.537 c -0.055,0.346 0.213,0.658 0.564,0.658 h 3.265 c 0.468,0 0.866,-0.34 0.939,-0.803 l 0.746,-4.73 c 0.072,-0.463 0.471,-0.803 0.938,-0.803 h 2.165 c 4.505,0 7.105,-2.18 7.784,-6.5 0.306,-1.89 0.013,-3.375 -0.872,-4.415 -0.972,-1.142 -2.696,-1.746 -4.985,-1.746 z m 0.789,6.405 c -0.374,2.454 -2.249,2.454 -4.062,2.454 h -1.032 l 0.724,-4.583 c 0.043,-0.277 0.283,-0.481 0.563,-0.481 h 0.473 c 1.235,0 2.4,0 3.002,0.704 0.359,0.42 0.469,1.044 0.332,1.906 z"
   id="path2" />
<path
   fill="#253b80"
   d="m 66.653989,20.563575 h -3.275 c -0.279,0 -0.52,0.204 -0.563,0.481 l -0.145,0.916 -0.229,-0.332 c -0.709,-1.029 -2.29,-1.373 -3.868,-1.373 -3.619,0 -6.71,2.741 -7.312,6.586 -0.313,1.918 0.132,3.752 1.22,5.031 0.998,1.176 2.426,1.666 4.125,1.666 2.916,0 4.533,-1.875 4.533,-1.875 l -0.146,0.91 c -0.055,0.348 0.213,0.66 0.562,0.66 h 2.95 c 0.469,0 0.865,-0.34 0.939,-0.803 l 1.77,-11.209 c 0.056,-0.345 -0.211,-0.658 -0.561,-0.658 z m -4.565,6.374 c -0.316,1.871 -1.801,3.127 -3.695,3.127 -0.951,0 -1.711,-0.305 -2.199,-0.883 -0.484,-0.574 -0.668,-1.391 -0.514,-2.301 0.295,-1.855 1.805,-3.152 3.67,-3.152 0.93,0 1.686,0.309 2.184,0.892 0.499,0.589 0.697,1.411 0.554,2.317 z"
   id="path4" />
<path
   fill="#253b80"
   d="m 84.095989,20.563575 h -3.291 c -0.314,0 -0.609,0.156 -0.787,0.417 l -4.539,6.686 -1.924,-6.425 c -0.121,-0.402 -0.492,-0.678 -0.912,-0.678 h -3.234 c -0.393,0 -0.666,0.384 -0.541,0.754 l 3.625,10.638 -3.408,4.811 c -0.268,0.379 0.002,0.9 0.465,0.9 h 3.287 c 0.312,0 0.604,-0.152 0.781,-0.408 l 10.946,-15.8 c 0.262,-0.378 -0.007,-0.895 -0.468,-0.895 z"
   id="path6" />
<path
   fill="#179bd7"
   d="m 94.991989,14.237575 h -6.84 c -0.467,0 -0.865,0.34 -0.938,0.802 l -2.766,17.537 c -0.055,0.346 0.213,0.658 0.562,0.658 h 3.51 c 0.326,0 0.605,-0.238 0.656,-0.562 l 0.785,-4.971 c 0.072,-0.463 0.471,-0.803 0.938,-0.803 h 2.164 c 4.506,0 7.105001,-2.18 7.785001,-6.5 0.307,-1.89 0.012,-3.375 -0.873001,-4.415 -0.971,-1.142 -2.694,-1.746 -4.983,-1.746 z m 0.789,6.405 c -0.373,2.454 -2.248,2.454 -4.062,2.454 h -1.031 l 0.725,-4.583 c 0.043,-0.277 0.281,-0.481 0.562,-0.481 h 0.473 c 1.234,0 2.4,0 3.002,0.704 0.359,0.42 0.468,1.044 0.331,1.906 z"
   id="path8" />
<path
   fill="#179bd7"
   d="m 115.43399,20.563575 h -3.273 c -0.281,0 -0.52,0.204 -0.562,0.481 l -0.145,0.916 -0.23,-0.332 c -0.709,-1.029 -2.289,-1.373 -3.867,-1.373 -3.619,0 -6.709,2.741 -7.311,6.586 -0.312001,1.918 0.131,3.752 1.219,5.031 1,1.176 2.426,1.666 4.125,1.666 2.916,0 4.533,-1.875 4.533,-1.875 l -0.146,0.91 c -0.055,0.348 0.213,0.66 0.564,0.66 h 2.949 c 0.467,0 0.865,-0.34 0.938,-0.803 l 1.771,-11.209 c 0.054,-0.345 -0.214,-0.658 -0.565,-0.658 z m -4.565,6.374 c -0.314,1.871 -1.801,3.127 -3.695,3.127 -0.949,0 -1.711,-0.305 -2.199,-0.883 -0.484,-0.574 -0.666,-1.391 -0.514,-2.301 0.297,-1.855 1.805,-3.152 3.67,-3.152 0.93,0 1.686,0.309 2.184,0.892 0.501,0.589 0.699,1.411 0.554,2.317 z"
   id="path10" />
<path
   fill="#179bd7"
   d="m 119.29499,14.718575 -2.807,17.858 c -0.055,0.346 0.213,0.658 0.562,0.658 h 2.822 c 0.469,0 0.867,-0.34 0.939,-0.803 l 2.768,-17.536 c 0.055,-0.346 -0.213,-0.659 -0.562,-0.659 h -3.16 c -0.279,10e-4 -0.519,0.205 -0.562,0.482 z"
   id="path12" />
<path
   fill="#253b80"
   d="m 7.2659888,36.642575 0.523,-3.322 -1.165,-0.027 h -5.563 l 3.866,-24.5129999 c 0.012,-0.074 0.051,-0.143 0.108,-0.192 0.057,-0.049 0.13,-0.076 0.206,-0.076 h 9.3800002 c 3.114,0 5.263,0.648 6.385,1.9269999 0.526,0.6 0.861,1.227 1.023,1.917 0.17,0.724 0.173,1.589 0.007,2.644 l -0.012,0.077 v 0.676 l 0.526,0.298 c 0.443,0.235 0.795,0.504 1.065,0.812 0.45,0.513 0.741,1.165 0.864,1.938 0.127,0.795 0.085,1.741 -0.123,2.812 -0.24,1.232 -0.628,2.305 -1.152,3.183 -0.482,0.809 -1.096,1.48 -1.825,2 -0.696,0.494 -1.523,0.869 -2.458,1.109 -0.906,0.236 -1.939,0.355 -3.072,0.355 h -0.73 c -0.522,0 -1.029,0.188 -1.427,0.525 -0.399,0.344 -0.663,0.814 -0.744,1.328 l -0.055,0.299 -0.924,5.855 -0.042,0.215 c -0.011,0.068 -0.03,0.102 -0.058,0.125 -0.025,0.021 -0.061,0.035 -0.096,0.035 z"
   id="path14" />
<path
   fill="#179bd7"
   d="m 23.047989,15.155575 v 0 0 c -0.028,0.179 -0.06,0.362 -0.096,0.55 -1.237,6.351 -5.469,8.545 -10.874,8.545 H 9.3259888 c -0.661,0 -1.218,0.48 -1.321,1.132 v 0 0 l -1.409,8.936 -0.399,2.533 c -0.067,0.428 0.263,0.814 0.695,0.814 h 4.8810002 c 0.578,0 1.069,-0.42 1.16,-0.99 l 0.048,-0.248 0.919,-5.832 0.059,-0.32 c 0.09,-0.572 0.582,-0.992 1.16,-0.992 h 0.73 c 4.729,0 8.431,-1.92 9.513,-7.476 0.452,-2.321 0.218,-4.259 -0.978,-5.622 -0.362,-0.411 -0.811,-0.752 -1.336,-1.03 z"
   id="path16" />
<path
   fill="#222d65"
   d="m 21.753989,14.639575 c -0.189,-0.055 -0.384,-0.105 -0.584,-0.15 -0.201,-0.044 -0.407,-0.083 -0.619,-0.117 -0.742,-0.12 -1.555,-0.177 -2.426,-0.177 h -7.352 c -0.181,0 -0.353,0.041 -0.507,0.115 -0.3390002,0.163 -0.5910002,0.484 -0.6520002,0.877 l -1.564,9.906 -0.045,0.289 c 0.103,-0.652 0.66,-1.132 1.321,-1.132 h 2.7520002 c 5.405,0 9.637,-2.195 10.874,-8.545 0.037,-0.188 0.068,-0.371 0.096,-0.55 -0.313,-0.166 -0.652,-0.308 -1.017,-0.429 -0.09,-0.03 -0.183,-0.059 -0.277,-0.087 z"
   id="path18" />
<path
   fill="#253b80"
   d="m 9.6139888,15.187575 c 0.061,-0.393 0.313,-0.714 0.6520002,-0.876 0.155,-0.074 0.326,-0.115 0.507,-0.115 h 7.352 c 0.871,0 1.684,0.057 2.426,0.177 0.212,0.034 0.418,0.073 0.619,0.117 0.2,0.045 0.395,0.095 0.584,0.15 0.094,0.028 0.187,0.057 0.278,0.086 0.365,0.121 0.704,0.264 1.017,0.429 0.368,-2.347 -0.003,-3.945 -1.272,-5.3919999 -1.399,-1.593 -3.924,-2.275 -7.155,-2.275 H 5.2419888 c -0.66,0 -1.223,0.48 -1.325,1.133 L 0.00998882,33.386575 c -0.077,0.49 0.301,0.932 0.795,0.932 H 6.5959888 l 1.454,-9.225 z"
   id="path20" />
<g
   aria-label="Donate with"
   id="text854"
   style="font-size:12px;line-height:1.25;font-family:Homa;-inkscape-font-specification:Homa;fill:#253b80;fill-opacity:1"><path
     d="m 29.608406,2.0742188 -1.048828,5.3378906 h 0.808594 q 1.576172,0 2.496093,-0.8847657 0.919922,-0.8847656 0.919922,-2.390625 0,-1.0195312 -0.603515,-1.5410156 -0.597657,-0.5214843 -1.78125,-0.5214843 z M 27.674812,0.36914063 h 2.373047 q 1.699219,0 2.548828,0.20507812 0.84961,0.19921875 1.41211,0.67382815 0.568359,0.4746093 0.855468,1.1542969 0.28711,0.6738281 0.28711,1.5292968 0,1.1894531 -0.492188,2.2441406 -0.486328,1.0488282 -1.371093,1.7636719 -0.773438,0.6386719 -1.798829,0.9082032 -1.019531,0.2695312 -3.140625,0.2695312 h -2.378906 z"
     style="font-style:italic;font-variant:normal;font-weight:bold;font-stretch:normal;font-size:12px;font-family:'Dejavu Sans';-inkscape-font-specification:'Dejavu Sans Bold Italic';fill:#253b80;fill-opacity:1"
     id="path856" /><path
     d="m 40.178719,3.8964844 q -0.814454,0 -1.341797,0.7382812 -0.527344,0.7382813 -0.527344,1.8808594 0,0.6210937 0.28125,0.9492187 0.287109,0.3222657 0.832031,0.3222657 0.814453,0 1.341797,-0.7382813 Q 41.292,6.3046875 41.292,5.15625 q 0,-0.6152344 -0.28711,-0.9375 -0.28125,-0.3222656 -0.826171,-0.3222656 z m 0.169921,-1.5 q 1.464844,0 2.302735,0.7441406 0.83789,0.7441406 0.83789,2.0273437 0,0.7441407 -0.263671,1.4472657 Q 42.961922,7.3125 42.458015,7.8925781 41.860359,8.5839844 41.045906,8.9355469 40.231453,9.2871094 39.2295,9.2871094 q -1.447266,0 -2.285156,-0.7441406 -0.832032,-0.7441407 -0.832032,-2.0273438 0,-0.7382813 0.269532,-1.4414063 0.269531,-0.7089843 0.773437,-1.2949218 0.585938,-0.6796875 1.394531,-1.03125 0.814453,-0.3515625 1.798828,-0.3515625 z"
     style="font-style:italic;font-variant:normal;font-weight:bold;font-stretch:normal;font-size:12px;font-family:'Dejavu Sans';-inkscape-font-specification:'Dejavu Sans Bold Italic';fill:#253b80;fill-opacity:1"
     id="path858" /><path
     d="m 51.663094,5.1210937 -0.779297,3.9960938 h -2.103516 l 0.662109,-3.421875 q 0.07031,-0.3339844 0.105469,-0.5625 0.04102,-0.234375 0.04102,-0.3691406 0,-0.375 -0.210938,-0.5800782 Q 49.172859,3.9785156 48.792,3.9785156 q -0.650391,0 -1.119141,0.5097656 -0.46289,0.5039063 -0.644531,1.4003907 L 46.395515,9.1171875 H 44.292 l 1.277344,-6.5625 h 2.109375 l -0.19336,0.9609375 q 0.580078,-0.5683594 1.166016,-0.84375 0.585937,-0.2753906 1.224609,-0.2753906 0.908203,0 1.400391,0.4746094 0.492187,0.4746093 0.492187,1.3359374 0,0.1875 -0.0293,0.4160157 -0.02344,0.2285156 -0.07617,0.4980468 z"
     style="font-style:italic;font-variant:normal;font-weight:bold;font-stretch:normal;font-size:12px;font-family:'Dejavu Sans';-inkscape-font-specification:'Dejavu Sans Bold Italic';fill:#253b80;fill-opacity:1"
     id="path860" /><path
     d="m 56.415047,6.1640625 q -0.785157,0 -1.189453,0.2460937 -0.398438,0.2402344 -0.398438,0.7148438 0,0.3574219 0.234375,0.5625 0.240234,0.2050781 0.65625,0.2050781 0.644531,0 1.078125,-0.3867187 0.433594,-0.3925782 0.580078,-1.1015625 l 0.04687,-0.2402344 z m 3.27539,-0.7910156 -0.732422,3.7441406 H 56.860359 L 57.03614,8.1445313 q -0.515625,0.5859375 -1.089843,0.8671875 -0.574219,0.2753906 -1.248047,0.2753906 -0.931641,0 -1.482422,-0.4804688 Q 52.670906,8.3203125 52.670906,7.5 q 0,-1.2539063 0.966797,-1.9160156 0.972656,-0.6679688 2.800781,-0.6679688 h 1.236328 l 0.02344,-0.1640625 q 0.01758,-0.082031 0.01758,-0.1171875 0.0059,-0.035156 0.0059,-0.064453 0,-0.3867188 -0.36914,-0.5800781 -0.363282,-0.1992188 -1.083985,-0.1992188 -0.65039,0 -1.259765,0.1347657 -0.609375,0.1347656 -1.177735,0.4042968 l 0.316407,-1.5996093 q 0.65625,-0.1640625 1.341796,-0.2460938 0.691407,-0.087891 1.429688,-0.087891 1.458984,0 2.167969,0.5039062 0.708984,0.4980469 0.708984,1.5234375 0,0.1992188 -0.0293,0.4394531 -0.02344,0.234375 -0.07617,0.5097657 z"
     style="font-style:italic;font-variant:normal;font-weight:bold;font-stretch:normal;font-size:12px;font-family:'Dejavu Sans';-inkscape-font-specification:'Dejavu Sans Bold Italic';fill:#253b80;fill-opacity:1"
     id="path862" /><path
     d="M 64.881844,0.69140625 64.524422,2.5546875 h 2.144531 l -0.298828,1.5 h -2.144531 l -0.539063,2.7773437 q -0.02344,0.09375 -0.03516,0.1582032 -0.0059,0.064453 -0.0059,0.1230468 0,0.2695313 0.175782,0.3867188 0.18164,0.1171875 0.603515,0.1171875 h 1.083985 l -0.298828,1.5 h -1.763672 q -0.949219,0 -1.447266,-0.3984375 -0.498047,-0.3984375 -0.498047,-1.1484375 0,-0.1640625 0.01758,-0.3515625 0.01758,-0.1875 0.05273,-0.3808594 l 0.539062,-2.7832031 h -1.03125 l 0.28711,-1.5 h 1.042968 l 0.363282,-1.86328125 z"
     style="font-style:italic;font-variant:normal;font-weight:bold;font-stretch:normal;font-size:12px;font-family:'Dejavu Sans';-inkscape-font-specification:'Dejavu Sans Bold Italic';fill:#253b80;fill-opacity:1"
     id="path864" /><path
     d="m 73.846687,6.0820312 -0.07031,0.3339844 h -4.910156 q 0,0.035156 -0.0059,0.1054688 -0.0059,0.064453 -0.0059,0.099609 0,0.6386719 0.380859,0.9550782 0.386719,0.3164062 1.154297,0.3164062 0.662109,0 1.394531,-0.1992187 0.738282,-0.1992188 1.546875,-0.5917969 l -0.322265,1.6289063 q -0.767578,0.28125 -1.529297,0.4160156 -0.75586,0.140625 -1.541016,0.140625 -1.535156,0 -2.373047,-0.7089844 -0.832031,-0.7089844 -0.832031,-2.0039063 0,-0.75 0.263672,-1.453125 0.269531,-0.7089843 0.779297,-1.2949218 0.603515,-0.703125 1.441406,-1.0664063 0.84375,-0.3632812 1.869141,-0.3632812 1.330078,0 2.109375,0.7089844 0.785156,0.7089843 0.785156,1.9101562 0,0.234375 -0.03516,0.4980469 -0.0293,0.2578125 -0.09961,0.5683593 z M 71.866219,5.1210937 q 0.01758,-0.076172 0.02344,-0.1523437 0.01172,-0.082031 0.01172,-0.1582031 0,-0.46875 -0.28125,-0.7441407 -0.28125,-0.2753906 -0.761719,-0.2753906 -0.615234,0 -1.048828,0.3398438 -0.427734,0.3339843 -0.65625,0.9902343 z"
     style="font-style:italic;font-variant:normal;font-weight:bold;font-stretch:normal;font-size:12px;font-family:'Dejavu Sans';-inkscape-font-specification:'Dejavu Sans Bold Italic';fill:#253b80;fill-opacity:1"
     id="path866" /><path
     d="m 79.659187,2.5546875 h 1.933594 l 0.228516,4.5117187 1.980468,-4.5117187 h 1.664063 l 0.240234,4.5 1.96875,-4.5 h 2.0625 l -3,6.5625 H 84.51075 L 84.293953,4.6054687 82.290047,9.1171875 h -2.173828 z"
     style="font-style:italic;font-variant:normal;font-weight:bold;font-stretch:normal;font-size:12px;font-family:'Dejavu Sans';-inkscape-font-specification:'Dejavu Sans Bold Italic';fill:#253b80;fill-opacity:1"
     id="path868" /><path
     d="m 91.34864,2.5546875 h 2.109375 l -1.283203,6.5625 H 90.071297 Z M 91.840828,0 h 2.109375 l -0.333984,1.7109375 h -2.115235 z"
     style="font-style:italic;font-variant:normal;font-weight:bold;font-stretch:normal;font-size:12px;font-family:'Dejavu Sans';-inkscape-font-specification:'Dejavu Sans Bold Italic';fill:#253b80;fill-opacity:1"
     id="path870" /><path
     d="M 98.133797,0.69140625 97.776375,2.5546875 h 2.144531 l -0.298828,1.5 h -2.144531 l -0.539063,2.7773437 q -0.02344,0.09375 -0.03516,0.1582032 -0.0059,0.064453 -0.0059,0.1230468 0,0.2695313 0.175781,0.3867188 0.18164,0.1171875 0.603515,0.1171875 h 1.083985 l -0.298828,1.5 H 96.69825 q -0.949219,0 -1.447266,-0.3984375 -0.498047,-0.3984375 -0.498047,-1.1484375 0,-0.1640625 0.01758,-0.3515625 0.01758,-0.1875 0.05273,-0.3808594 l 0.539062,-2.7832031 h -1.03125 l 0.28711,-1.5 h 1.042968 l 0.363282,-1.86328125 z"
     style="font-style:italic;font-variant:normal;font-weight:bold;font-stretch:normal;font-size:12px;font-family:'Dejavu Sans';-inkscape-font-specification:'Dejavu Sans Bold Italic';fill:#253b80;fill-opacity:1"
     id="path872" /><path
     d="m 107.292,5.1210937 -0.7793,3.9960938 h -2.10351 l 0.66211,-3.421875 q 0.0703,-0.3339844 0.10547,-0.5625 0.041,-0.234375 0.041,-0.3691406 0,-0.375 -0.21094,-0.5800782 -0.20507,-0.2050781 -0.58593,-0.2050781 -0.65039,0 -1.11914,0.5097656 -0.4629,0.5039063 -0.64454,1.4003907 l -0.63281,3.2285156 H 99.920906 L 101.69044,0 h 2.10937 l -0.68554,3.515625 q 0.58007,-0.5683594 1.16601,-0.84375 0.58594,-0.2753906 1.22461,-0.2753906 0.9082,0 1.40039,0.4746094 0.49219,0.4746093 0.49219,1.3359374 0,0.1875 -0.0293,0.4160157 -0.0234,0.2285156 -0.0762,0.4980468 z"
     style="font-style:italic;font-variant:normal;font-weight:bold;font-stretch:normal;font-size:12px;font-family:'Dejavu Sans';-inkscape-font-specification:'Dejavu Sans Bold Italic';fill:#253b80;fill-opacity:1"
     id="path874" /></g></svg>
