<?xml version="1.0" encoding="UTF-8" standalone="no"?>
<svg
   xmlns:dc="http://purl.org/dc/elements/1.1/"
   xmlns:cc="http://creativecommons.org/ns#"
   xmlns:rdf="http://www.w3.org/1999/02/22-rdf-syntax-ns#"
   xmlns:svg="http://www.w3.org/2000/svg"
   xmlns="http://www.w3.org/2000/svg"
   xmlns:xlink="http://www.w3.org/1999/xlink"
   width="232px"
   height="48px"
   viewBox="0 0 232 48"
   version="1.1"
   id="svg26">
  <metadata
     id="metadata30">
    <rdf:RDF>
      <cc:Work
         rdf:about="">
        <dc:format>image/svg+xml</dc:format>
        <dc:type
           rdf:resource="http://purl.org/dc/dcmitype/StillImage" />
        <dc:title>patreon</dc:title>
      </cc:Work>
    </rdf:RDF>
  </metadata>
  <title
     id="title2">patreon</title>
  <defs
     id="defs5">
    <polygon
       id="path-1"
       points="0.00819352321 0.047639485 64.6679672 0.047639485 64.6679672 20.8934842 0.00819352321 20.8934842" />
  </defs>
  <g
     id="g885">
    <g
       id="Digital-Patreon-Logo_FieryCoral"
       fill="#ff424d"
       style="fill-rule:evenodd;stroke:none;stroke-width:1">
      <path
         d="m 32.04075,0.01841667 c -9.923,0 -17.996167,8.08050003 -17.996167,18.01325033 0,9.90275 8.073167,17.959333 17.996167,17.959333 9.892333,0 17.940167,-8.056583 17.940167,-17.959333 0,-9.9327503 -8.047834,-18.01325033 -17.940167,-18.01325033"
         id="Fill-1" />
      <polygon
         id="Fill-3"
         points="8.78675,0.01825 0,0.01825 0,47.995 8.78675,47.995 " />
    </g>
    <g
       id="Digital-Patreon-Wordmark_Black"
       transform="translate(82,13)"
       style="fill:none;fill-rule:evenodd;stroke:none;stroke-width:1">
      <path
         d="m 10.904409,7.7235661 c 0,-1.8412017 -1.2465276,-3.4274093 -3.1724152,-3.4274093 H 4.5882559 v 6.8538242 h 3.1437379 c 1.9258876,0 3.1724152,-1.5852131 3.1724152,-3.4264149 z M 0,0.55768631 h 8.2981662 c 4.3903238,0 7.2230008,3.31416309 7.2230008,7.16587979 0,3.8517169 -2.832677,7.1648269 -7.2230008,7.1648269 H 4.5882559 v 5.495103 H 0 Z"
         id="path10"
         fill="#141518" />
      <path
         d="m 28.804331,6.2220445 -2.435876,8.1573545 h 4.814631 z m 4.277078,14.1614515 -0.763988,-2.407374 h -7.052692 l -0.765041,2.407374 H 19.599376 L 26.68057,0.55768631 h 4.219957 L 38.066465,20.383496 Z"
         id="Fill-2"
         fill="#141518" />
      <polyline
         id="polyline13"
         fill="#141518"
         points="45.7698986 4.52264924 41.2959423 4.52264924 41.2959423 0.557686305 54.861666 0.557686305 54.861666 4.52264924 50.358096 4.52264924 50.358096 20.3834959 45.7698986 20.3834959 45.7698986 4.52264924" />
      <path
         d="m 72.903629,7.7235661 c 0,-1.8412017 -1.246586,-3.4274093 -3.17265,-3.4274093 h -3.143972 v 6.8538242 h 3.143972 c 1.926064,0 3.17265,-1.5852131 3.17265,-3.4264149 z M 61.99922,0.55768631 h 8.327545 c 4.389388,0 7.222006,3.31416309 7.222006,7.16587979 0,2.7755559 -1.473078,5.2389969 -3.937573,6.4008389 l 3.96625,6.259091 h -5.324619 l -3.513266,-5.495103 h -2.152556 v 5.495103 H 61.99922 Z"
         id="Fill-4"
         fill="#141518" />
      <g
         id="Group-9"
         transform="translate(85.329692)">
        <mask
           id="mask-2"
           fill="#ffffff">
          <use
             xlink:href="#path-1"
             id="use16"
             x="0"
             y="0"
             width="100%"
             height="100%" />
        </mask>
        <g
           id="Clip-6" />
        <polyline
           id="Fill-5"
           fill="#141518"
           mask="url(#mask-2)"
           points="4.59656652 4.24008974 4.59656652 8.74260632 12.1018338 8.74260632 12.1018338 12.3403238 4.59656652 12.3403238 4.59656652 16.7010339 12.1018338 16.7010339 12.1018338 20.3834959 0.00819352321 20.3834959 0.00819352321 0.557686305 12.1018338 0.557686305 12.1018338 4.24008974 4.59656652 4.24008974" />
        <path
           d="m 35.865392,10.470562 c 0,-3.2570427 -2.20991,-6.2875928 -5.806282,-6.2875928 -3.625634,0 -5.806281,3.0305501 -5.806281,6.2875928 0,3.257042 2.180647,6.287651 5.806281,6.287651 3.596372,0 5.806282,-3.030609 5.806282,-6.287651 z m -16.31506,0 c 0,-5.4379245 3.908895,-10.42292251 10.508778,-10.42292251 6.570035,0 10.478931,4.98499801 10.478931,10.42292251 0,5.437924 -3.908896,10.422922 -10.478931,10.422922 -6.599883,0 -10.508778,-4.984998 -10.508778,-10.422922 z"
           id="Fill-7"
           fill="#141518"
           mask="url(#mask-2)" />
        <polyline
           id="Fill-8"
           fill="#141518"
           mask="url(#mask-2)"
           points="60.1100273 13.4726102 60.1100273 0.557686305 64.669723 0.557686305 64.669723 20.3834959 59.8835349 20.3834959 52.7452204 7.63788529 52.7452204 20.3834959 48.1568474 20.3834959 48.1568474 0.557686305 52.9430355 0.557686305 60.1100273 13.4726102" />
      </g>
    </g>
  </g>
</svg>
